<?xml version="1.0" encoding="UTF-8"?>
<svg id="Layer_2" data-name="Layer 2" xmlns="http://www.w3.org/2000/svg" viewBox="0 0 285.18 270.65">
  <defs>
    <style>
      .cls-1 {
        fill: #007aff;
        stroke-width: 0px;
      }
    </style>
  </defs>
  <g id="Layer_1-2" data-name="Layer 1">
    <g>
      <g>
        <path class="cls-1" d="M262.58,126.21c.16.78.16,1.4.16,2.18.31,2.18.47,4.52.47,6.86,0,33.5-27.11,60.77-60.61,60.77H27.04l35.1,74.64h136.72c47.52,0,86.32-38.8,86.32-86.32,0-22.13-8.57-42.54-22.59-58.12Z"/>
        <path class="cls-1" d="M82.58,74.64h171.86L219.35,0H86.32C38.8,0,0,38.8,0,86.32c0,22.13,8.57,42.54,22.59,58.12-.16-.78-.16-1.4-.16-2.18-.31-2.18-.47-4.52-.47-6.86,0-33.5,27.11-60.77,60.61-60.77Z"/>
      </g>
      <path class="cls-1" d="M171.43,178.19c9.8,0,19.6.24,29.4.03,21.25-.45,35.72-13.61,38.47-34.67.09-.66.35-1.29.53-1.93v-10.14c-.89-3.81-1.47-7.72-2.74-11.4-4.86-14.2-13.65-24.58-29.09-27.41-4.67-.85-9.62-.18-14.45-.18-8.52,0-17.04,0-25.8,0,0,0-52.02-.58-74.41-.85-6.06-.07-12.18.15-18.19.86-11.61,1.37-19.72,8.94-24.41,18.99-2.42,5.2-5,13.27-5.3,22.76-.09,2.97-.99,10.74,4.46,23.04,6.43,14.5,16.71,21.44,31.95,21.45,27,.01,88.38-.55,89.57-.55ZM213.13,173.44c5.61-7.69,11.82-14.79,19.84-20.06-3.48,9.77-9.55,16.99-19.84,20.06ZM231.43,117.71c-8.03-5.28-14.22-12.39-19.89-20.12,10.27,3.08,16.38,10.32,19.89,20.12ZM107.99,97.62c13.87-1.96,27.71-1.83,41.49.76-13.92,4.36-27.74,3.58-41.49-.76ZM165.99,99.28c1.03-.19,2.54.7,3.43,1.52,6.92,6.44,10.91,14.53,12.55,23.72,2.8,15.58-.12,29.9-9.81,42.69-2.78,3.67-5.59,5.57-10.41,3.52-3.77-1.6-7.92-2.32-12.29-3.54,5.38-21.67,4.95-42.94.06-64.3,5.75-1.3,11.07-2.62,16.46-3.6ZM93.06,103.39c2.97,1.02,5.82,2,8.83,3.04-2.78,19.52-3.08,38.89.05,58.45-2.8.94-5.43,1.82-8,2.69-11.59-14.52-12.06-44.45-.88-64.18ZM107.41,173.7c9.96-4.78,31.33-5.23,42.85-.84-14.58,2.36-28.4,2.53-42.85.84Z"/>
    </g>
  </g>
</svg>